<svg width="371" height="76" viewBox="0 0 371 76" fill="none" xmlns="http://www.w3.org/2000/svg">
<path d="M201.792 35.772C201.792 34.848 201.966 34.032 202.314 33.324C202.662 32.604 203.106 31.986 203.646 31.47C204.198 30.942 204.768 30.498 205.356 30.138C205.956 29.778 206.514 29.496 207.03 29.292C207.558 29.076 207.966 28.926 208.254 28.842C208.002 28.698 207.708 28.464 207.372 28.14C207.048 27.804 206.73 27.402 206.418 26.934C206.118 26.454 205.866 25.92 205.662 25.332C205.458 24.744 205.356 24.126 205.356 23.478C205.356 22.47 205.632 21.534 206.184 20.67C206.748 19.806 207.564 19.116 208.632 18.6C209.7 18.072 210.978 17.808 212.466 17.808C213.942 17.808 215.172 18.06 216.156 18.564C217.152 19.068 217.902 19.752 218.406 20.616C218.922 21.48 219.18 22.458 219.18 23.55C219.18 24.402 218.988 25.17 218.604 25.854C218.232 26.526 217.764 27.12 217.2 27.636C216.636 28.14 216.072 28.566 215.508 28.914C214.956 29.262 214.488 29.526 214.104 29.706L218.154 34.062C218.454 33.81 218.868 33.378 219.396 32.766C219.936 32.154 220.494 31.422 221.07 30.57L224.058 33.252C223.878 33.54 223.62 33.906 223.284 34.35C222.948 34.794 222.582 35.238 222.186 35.682C221.802 36.126 221.424 36.504 221.052 36.816L225.984 42H220.314L217.686 39.21C217.074 39.738 216.366 40.248 215.562 40.74C214.77 41.232 213.87 41.64 212.862 41.964C211.854 42.276 210.714 42.432 209.442 42.432C208.062 42.432 206.79 42.174 205.626 41.658C204.474 41.142 203.544 40.386 202.836 39.39C202.14 38.394 201.792 37.188 201.792 35.772ZM210.468 31.542C210.312 31.602 210.084 31.704 209.784 31.848C209.496 31.98 209.184 32.154 208.848 32.37C208.512 32.574 208.194 32.826 207.894 33.126C207.594 33.414 207.348 33.744 207.156 34.116C206.964 34.488 206.868 34.908 206.868 35.376C206.868 36.024 207.018 36.564 207.318 36.996C207.618 37.416 208.02 37.728 208.524 37.932C209.04 38.136 209.61 38.238 210.234 38.238C210.87 38.238 211.482 38.13 212.07 37.914C212.658 37.698 213.192 37.434 213.672 37.122C214.164 36.81 214.554 36.51 214.842 36.222L210.468 31.542ZM212.448 21.264C211.872 21.264 211.38 21.378 210.972 21.606C210.564 21.822 210.258 22.104 210.054 22.452C209.85 22.8 209.748 23.16 209.748 23.532C209.748 23.928 209.844 24.336 210.036 24.756C210.228 25.176 210.45 25.566 210.702 25.926C210.966 26.286 211.206 26.586 211.422 26.826C211.638 27.054 211.764 27.192 211.8 27.24C211.98 27.18 212.25 27.06 212.61 26.88C212.97 26.688 213.336 26.436 213.708 26.124C214.092 25.812 214.416 25.44 214.68 25.008C214.944 24.576 215.076 24.084 215.076 23.532C215.076 22.896 214.836 22.362 214.356 21.93C213.888 21.486 213.252 21.264 212.448 21.264Z" fill="#92BF7C" fill-opacity="0.82"/>
<path d="M39.284 42V39.426C39.176 39.69 38.9 40.062 38.456 40.542C38.012 41.022 37.412 41.46 36.656 41.856C35.912 42.24 35.036 42.432 34.028 42.432C32.612 42.432 31.358 42.096 30.266 41.424C29.174 40.74 28.316 39.81 27.692 38.634C27.08 37.446 26.774 36.108 26.774 34.62C26.774 33.132 27.08 31.8 27.692 30.624C28.316 29.436 29.174 28.5 30.266 27.816C31.358 27.132 32.612 26.79 34.028 26.79C35.012 26.79 35.864 26.958 36.584 27.294C37.316 27.618 37.904 28.002 38.348 28.446C38.804 28.878 39.098 29.268 39.23 29.616V27.222H43.766V42H39.284ZM31.256 34.62C31.256 35.448 31.442 36.18 31.814 36.816C32.186 37.44 32.678 37.926 33.29 38.274C33.902 38.622 34.568 38.796 35.288 38.796C36.044 38.796 36.716 38.622 37.304 38.274C37.892 37.914 38.354 37.422 38.69 36.798C39.038 36.162 39.212 35.436 39.212 34.62C39.212 33.804 39.038 33.084 38.69 32.46C38.354 31.824 37.892 31.326 37.304 30.966C36.716 30.606 36.044 30.426 35.288 30.426C34.568 30.426 33.902 30.606 33.29 30.966C32.678 31.314 32.186 31.806 31.814 32.442C31.442 33.066 31.256 33.792 31.256 34.62ZM53.6933 38.796C54.4733 38.796 55.1093 38.664 55.6013 38.4C56.0933 38.136 56.4173 37.938 56.5733 37.806L58.6973 40.956C58.5293 41.088 58.2173 41.274 57.7613 41.514C57.3053 41.754 56.7233 41.964 56.0153 42.144C55.3193 42.336 54.5213 42.432 53.6213 42.432C52.0613 42.432 50.6633 42.12 49.4273 41.496C48.1913 40.86 47.2133 39.96 46.4933 38.796C45.7853 37.62 45.4313 36.222 45.4313 34.602C45.4313 32.97 45.7853 31.572 46.4933 30.408C47.2133 29.244 48.1913 28.35 49.4273 27.726C50.6633 27.102 52.0613 26.79 53.6213 26.79C54.5093 26.79 55.2953 26.886 55.9793 27.078C56.6753 27.27 57.2573 27.492 57.7253 27.744C58.1933 27.984 58.5173 28.182 58.6973 28.338L56.5193 31.506C56.4353 31.41 56.2733 31.278 56.0333 31.11C55.7933 30.942 55.4753 30.786 55.0793 30.642C54.6953 30.498 54.2333 30.426 53.6933 30.426C53.0333 30.426 52.4033 30.6 51.8033 30.948C51.2153 31.296 50.7353 31.782 50.3633 32.406C49.9913 33.03 49.8053 33.762 49.8053 34.602C49.8053 35.442 49.9913 36.18 50.3633 36.816C50.7353 37.44 51.2153 37.926 51.8033 38.274C52.4033 38.622 53.0333 38.796 53.6933 38.796ZM64.1468 34.296C64.1468 35.616 64.4108 36.672 64.9388 37.464C65.4668 38.244 66.3188 38.634 67.4948 38.634C68.6828 38.634 69.5408 38.244 70.0688 37.464C70.5968 36.672 70.8608 35.616 70.8608 34.296V27.222H75.3608V34.818C75.3608 36.342 75.0548 37.68 74.4428 38.832C73.8308 39.972 72.9368 40.86 71.7608 41.496C70.5968 42.12 69.1748 42.432 67.4948 42.432C65.8268 42.432 64.4048 42.12 63.2288 41.496C62.0648 40.86 61.1768 39.972 60.5648 38.832C59.9528 37.68 59.6468 36.342 59.6468 34.818V27.222H64.1468V34.296ZM82.1533 49.488H77.6173V27.222H82.2073V29.616C82.3513 29.268 82.6633 28.872 83.1433 28.428C83.6233 27.984 84.2473 27.6 85.0153 27.276C85.7953 26.952 86.6833 26.79 87.6793 26.79C89.0833 26.79 90.3073 27.132 91.3513 27.816C92.3953 28.5 93.1993 29.436 93.7633 30.624C94.3393 31.8 94.6273 33.132 94.6273 34.62C94.6273 36.108 94.3273 37.446 93.7273 38.634C93.1273 39.81 92.2933 40.74 91.2253 41.424C90.1573 42.096 88.9153 42.432 87.4993 42.432C86.4313 42.432 85.5133 42.24 84.7453 41.856C83.9773 41.472 83.3773 41.04 82.9453 40.56C82.5133 40.08 82.2493 39.702 82.1533 39.426V49.488ZM90.1453 34.62C90.1453 33.792 89.9653 33.066 89.6053 32.442C89.2573 31.806 88.7893 31.314 88.2013 30.966C87.6133 30.606 86.9593 30.426 86.2393 30.426C85.4833 30.426 84.7993 30.606 84.1873 30.966C83.5753 31.326 83.0893 31.824 82.7293 32.46C82.3813 33.084 82.2073 33.804 82.2073 34.62C82.2073 35.436 82.3813 36.162 82.7293 36.798C83.0893 37.422 83.5753 37.914 84.1873 38.274C84.7993 38.622 85.4833 38.796 86.2393 38.796C86.9593 38.796 87.6133 38.622 88.2013 38.274C88.7893 37.926 89.2573 37.44 89.6053 36.816C89.9653 36.18 90.1453 35.448 90.1453 34.62ZM100.466 34.296C100.466 35.616 100.73 36.672 101.258 37.464C101.786 38.244 102.638 38.634 103.814 38.634C105.002 38.634 105.86 38.244 106.388 37.464C106.916 36.672 107.18 35.616 107.18 34.296V27.222H111.68V34.818C111.68 36.342 111.374 37.68 110.762 38.832C110.15 39.972 109.256 40.86 108.08 41.496C106.916 42.12 105.494 42.432 103.814 42.432C102.146 42.432 100.724 42.12 99.548 41.496C98.384 40.86 97.496 39.972 96.884 38.832C96.272 37.68 95.966 36.342 95.966 34.818V27.222H100.466V34.296ZM123.368 26.79C124.376 26.79 125.36 27 126.32 27.42C127.28 27.828 128.066 28.482 128.678 29.382C129.302 30.282 129.614 31.458 129.614 32.91V42H125.024V33.702C125.024 32.49 124.736 31.59 124.16 31.002C123.596 30.414 122.852 30.12 121.928 30.12C121.328 30.12 120.752 30.288 120.2 30.624C119.66 30.948 119.216 31.404 118.868 31.992C118.532 32.568 118.364 33.228 118.364 33.972V42H113.792V27.222H118.364V29.58C118.496 29.172 118.796 28.752 119.264 28.32C119.732 27.888 120.326 27.528 121.046 27.24C121.766 26.94 122.54 26.79 123.368 26.79ZM139.341 38.796C140.121 38.796 140.757 38.664 141.249 38.4C141.741 38.136 142.065 37.938 142.221 37.806L144.345 40.956C144.177 41.088 143.865 41.274 143.409 41.514C142.953 41.754 142.371 41.964 141.663 42.144C140.967 42.336 140.169 42.432 139.269 42.432C137.709 42.432 136.311 42.12 135.075 41.496C133.839 40.86 132.861 39.96 132.141 38.796C131.433 37.62 131.079 36.222 131.079 34.602C131.079 32.97 131.433 31.572 132.141 30.408C132.861 29.244 133.839 28.35 135.075 27.726C136.311 27.102 137.709 26.79 139.269 26.79C140.157 26.79 140.943 26.886 141.627 27.078C142.323 27.27 142.905 27.492 143.373 27.744C143.841 27.984 144.165 28.182 144.345 28.338L142.167 31.506C142.083 31.41 141.921 31.278 141.681 31.11C141.441 30.942 141.123 30.786 140.727 30.642C140.343 30.498 139.881 30.426 139.341 30.426C138.681 30.426 138.051 30.6 137.451 30.948C136.863 31.296 136.383 31.782 136.011 32.406C135.639 33.03 135.453 33.762 135.453 34.602C135.453 35.442 135.639 36.18 136.011 36.816C136.383 37.44 136.863 37.926 137.451 38.274C138.051 38.622 138.681 38.796 139.341 38.796ZM157.671 34.296C157.671 35.616 157.935 36.672 158.463 37.464C158.991 38.244 159.843 38.634 161.019 38.634C162.207 38.634 163.065 38.244 163.593 37.464C164.121 36.672 164.385 35.616 164.385 34.296V27.222H168.885V34.818C168.885 36.342 168.579 37.68 167.967 38.832C167.355 39.972 166.461 40.86 165.285 41.496C164.121 42.12 162.699 42.432 161.019 42.432C159.351 42.432 157.929 42.12 156.753 41.496C155.589 40.86 154.701 39.972 154.089 38.832C153.477 37.68 153.171 36.342 153.171 34.818V27.222H157.671V34.296ZM175.407 42H170.835V27.222H175.407V29.616H175.317C175.401 29.328 175.629 28.962 176.001 28.518C176.385 28.074 176.913 27.678 177.585 27.33C178.257 26.97 179.067 26.79 180.015 26.79C180.699 26.79 181.317 26.892 181.869 27.096C182.433 27.288 182.835 27.48 183.075 27.672L181.275 31.416C181.119 31.224 180.825 31.026 180.393 30.822C179.973 30.618 179.445 30.516 178.809 30.516C178.053 30.516 177.423 30.726 176.919 31.146C176.415 31.554 176.037 32.058 175.785 32.658C175.533 33.246 175.407 33.798 175.407 34.314V42ZM186.392 35.628C186.428 36.3 186.608 36.9 186.932 37.428C187.256 37.956 187.724 38.37 188.336 38.67C188.96 38.97 189.704 39.12 190.568 39.12C191.348 39.12 192.032 39.024 192.62 38.832C193.22 38.64 193.724 38.406 194.132 38.13C194.552 37.842 194.864 37.566 195.068 37.302L196.958 40.11C196.622 40.53 196.172 40.92 195.608 41.28C195.056 41.628 194.348 41.904 193.484 42.108C192.632 42.324 191.564 42.432 190.28 42.432C188.66 42.432 187.238 42.114 186.014 41.478C184.79 40.842 183.836 39.924 183.152 38.724C182.468 37.524 182.126 36.096 182.126 34.44C182.126 33 182.432 31.704 183.044 30.552C183.656 29.388 184.544 28.47 185.708 27.798C186.884 27.126 188.294 26.79 189.938 26.79C191.486 26.79 192.824 27.09 193.952 27.69C195.092 28.278 195.974 29.142 196.598 30.282C197.222 31.422 197.534 32.814 197.534 34.458C197.534 34.554 197.528 34.752 197.516 35.052C197.516 35.34 197.504 35.532 197.48 35.628H186.392ZM193.25 32.802C193.238 32.418 193.118 32.004 192.89 31.56C192.674 31.116 192.332 30.738 191.864 30.426C191.396 30.114 190.772 29.958 189.992 29.958C189.212 29.958 188.57 30.108 188.066 30.408C187.574 30.708 187.202 31.08 186.95 31.524C186.698 31.956 186.554 32.382 186.518 32.802H193.25Z" fill="#656565"/>
<path d="M247.62 26.79C248.712 26.79 249.648 27.03 250.428 27.51C251.208 27.978 251.802 28.698 252.21 29.67C252.63 30.642 252.84 31.884 252.84 33.396V42H249.744V34.026C249.744 32.43 249.522 31.23 249.078 30.426C248.634 29.622 247.824 29.22 246.648 29.22C246.024 29.22 245.424 29.394 244.848 29.742C244.284 30.078 243.816 30.6 243.444 31.308C243.084 32.016 242.904 32.922 242.904 34.026V42H239.988V34.026C239.988 32.43 239.712 31.23 239.16 30.426C238.608 29.622 237.834 29.22 236.838 29.22C236.202 29.22 235.602 29.388 235.038 29.724C234.486 30.048 234.036 30.564 233.688 31.272C233.34 31.98 233.166 32.898 233.166 34.026V42H230.052V27.222H233.166V29.49C233.298 29.118 233.58 28.722 234.012 28.302C234.456 27.882 235.02 27.528 235.704 27.24C236.4 26.94 237.174 26.79 238.026 26.79C238.914 26.79 239.658 26.97 240.258 27.33C240.858 27.69 241.332 28.134 241.68 28.662C242.028 29.178 242.268 29.676 242.4 30.156C242.568 29.64 242.892 29.124 243.372 28.608C243.852 28.08 244.458 27.648 245.19 27.312C245.922 26.964 246.732 26.79 247.62 26.79ZM257.693 35.25C257.705 36.138 257.897 36.948 258.269 37.68C258.641 38.412 259.193 38.994 259.925 39.426C260.669 39.858 261.581 40.074 262.661 40.074C263.573 40.074 264.347 39.942 264.983 39.678C265.631 39.402 266.159 39.078 266.567 38.706C266.975 38.322 267.269 37.98 267.449 37.68L268.979 39.57C268.583 40.146 268.097 40.65 267.521 41.082C266.957 41.514 266.267 41.844 265.451 42.072C264.635 42.312 263.639 42.432 262.463 42.432C260.879 42.432 259.505 42.096 258.341 41.424C257.189 40.74 256.301 39.798 255.677 38.598C255.053 37.386 254.741 36 254.741 34.44C254.741 33 255.035 31.704 255.623 30.552C256.211 29.388 257.063 28.47 258.179 27.798C259.307 27.126 260.663 26.79 262.247 26.79C263.699 26.79 264.959 27.096 266.027 27.708C267.107 28.308 267.941 29.16 268.529 30.264C269.129 31.368 269.429 32.688 269.429 34.224C269.429 34.32 269.423 34.494 269.411 34.746C269.399 34.986 269.387 35.154 269.375 35.25H257.693ZM266.441 32.892C266.429 32.4 266.285 31.86 266.009 31.272C265.745 30.684 265.313 30.18 264.713 29.76C264.113 29.34 263.303 29.13 262.283 29.13C261.227 29.13 260.375 29.334 259.727 29.742C259.091 30.15 258.623 30.648 258.323 31.236C258.023 31.812 257.849 32.364 257.801 32.892H266.441ZM277.963 42.432C276.607 42.432 275.389 42.108 274.309 41.46C273.241 40.812 272.395 39.906 271.771 38.742C271.159 37.566 270.853 36.192 270.853 34.62C270.853 33.048 271.159 31.68 271.771 30.516C272.395 29.34 273.241 28.428 274.309 27.78C275.389 27.12 276.607 26.79 277.963 26.79C279.055 26.79 280.015 26.982 280.843 27.366C281.671 27.738 282.331 28.176 282.823 28.68C283.315 29.184 283.597 29.622 283.669 29.994V17.232H286.819V42H283.724V39.12C283.591 39.528 283.261 39.99 282.733 40.506C282.217 41.022 281.551 41.472 280.735 41.856C279.919 42.24 278.995 42.432 277.963 42.432ZM278.683 39.84C279.595 39.84 280.429 39.624 281.185 39.192C281.941 38.76 282.541 38.154 282.985 37.374C283.441 36.582 283.669 35.664 283.669 34.62C283.669 33.576 283.441 32.664 282.985 31.884C282.541 31.092 281.941 30.48 281.185 30.048C280.429 29.604 279.595 29.382 278.683 29.382C277.843 29.382 277.063 29.598 276.343 30.03C275.623 30.462 275.041 31.068 274.597 31.848C274.165 32.628 273.949 33.552 273.949 34.62C273.949 35.688 274.165 36.612 274.597 37.392C275.041 38.172 275.623 38.778 276.343 39.21C277.063 39.63 277.843 39.84 278.683 39.84ZM289.228 42V27.222H292.36V42H289.228ZM290.83 22.164C290.266 22.164 289.78 21.966 289.372 21.57C288.976 21.162 288.778 20.676 288.778 20.112C288.778 19.548 288.976 19.062 289.372 18.654C289.78 18.246 290.266 18.042 290.83 18.042C291.202 18.042 291.544 18.138 291.856 18.33C292.18 18.522 292.438 18.774 292.63 19.086C292.822 19.386 292.918 19.728 292.918 20.112C292.918 20.676 292.714 21.162 292.306 21.57C291.898 21.966 291.406 22.164 290.83 22.164ZM302.674 39.84C303.61 39.84 304.366 39.69 304.942 39.39C305.518 39.09 305.878 38.874 306.022 38.742L307.552 40.992C307.432 41.1 307.144 41.274 306.688 41.514C306.244 41.742 305.668 41.952 304.96 42.144C304.264 42.336 303.472 42.432 302.584 42.432C301.228 42.432 299.968 42.132 298.804 41.532C297.64 40.92 296.698 40.032 295.978 38.868C295.27 37.704 294.916 36.282 294.916 34.602C294.916 32.91 295.27 31.488 295.978 30.336C296.698 29.172 297.64 28.29 298.804 27.69C299.968 27.09 301.228 26.79 302.584 26.79C303.46 26.79 304.24 26.898 304.924 27.114C305.608 27.318 306.172 27.546 306.616 27.798C307.06 28.05 307.354 28.242 307.498 28.374L305.95 30.624C305.854 30.528 305.668 30.384 305.392 30.192C305.128 29.988 304.768 29.802 304.312 29.634C303.856 29.466 303.31 29.382 302.674 29.382C301.906 29.382 301.156 29.592 300.424 30.012C299.704 30.42 299.11 31.014 298.642 31.794C298.174 32.574 297.94 33.51 297.94 34.602C297.94 35.694 298.174 36.636 298.642 37.428C299.11 38.208 299.704 38.808 300.424 39.228C301.156 39.636 301.906 39.84 302.674 39.84ZM321.09 42V39.12C320.994 39.42 320.712 39.834 320.244 40.362C319.788 40.89 319.158 41.37 318.354 41.802C317.562 42.222 316.626 42.432 315.546 42.432C314.178 42.432 312.936 42.108 311.82 41.46C310.716 40.812 309.834 39.906 309.174 38.742C308.526 37.566 308.202 36.192 308.202 34.62C308.202 33.048 308.526 31.68 309.174 30.516C309.834 29.34 310.716 28.428 311.82 27.78C312.936 27.12 314.178 26.79 315.546 26.79C316.614 26.79 317.538 26.982 318.318 27.366C319.11 27.75 319.74 28.194 320.208 28.698C320.688 29.202 320.97 29.634 321.054 29.994V27.222H324.15V42H321.09ZM311.298 34.62C311.298 35.688 311.532 36.612 312 37.392C312.468 38.172 313.074 38.778 313.818 39.21C314.574 39.63 315.378 39.84 316.23 39.84C317.142 39.84 317.958 39.624 318.678 39.192C319.398 38.76 319.968 38.154 320.388 37.374C320.808 36.582 321.018 35.664 321.018 34.62C321.018 33.576 320.808 32.664 320.388 31.884C319.968 31.092 319.398 30.48 318.678 30.048C317.958 29.604 317.142 29.382 316.23 29.382C315.378 29.382 314.574 29.598 313.818 30.03C313.074 30.462 312.468 31.068 312 31.848C311.532 32.628 311.298 33.552 311.298 34.62ZM330.153 42H327.003V17.232H330.153V42Z" fill="#656565"/>
<path d="M284.92 54.8C285.44 54.8 285.86 54.7167 286.18 54.55C286.5 54.3833 286.7 54.2633 286.78 54.19L287.63 55.44C287.563 55.5 287.403 55.5967 287.15 55.73C286.903 55.8567 286.583 55.9733 286.19 56.08C285.803 56.1867 285.363 56.24 284.87 56.24C284.117 56.24 283.417 56.0733 282.77 55.74C282.123 55.4 281.6 54.9067 281.2 54.26C280.807 53.6133 280.61 52.8233 280.61 51.89C280.61 50.95 280.807 50.16 281.2 49.52C281.6 48.8733 282.123 48.3833 282.77 48.05C283.417 47.7167 284.117 47.55 284.87 47.55C285.357 47.55 285.79 47.61 286.17 47.73C286.55 47.8433 286.863 47.97 287.11 48.11C287.357 48.25 287.52 48.3567 287.6 48.43L286.74 49.68C286.687 49.6267 286.583 49.5467 286.43 49.44C286.283 49.3267 286.083 49.2233 285.83 49.13C285.577 49.0367 285.273 48.99 284.92 48.99C284.493 48.99 284.077 49.1067 283.67 49.34C283.27 49.5667 282.94 49.8967 282.68 50.33C282.42 50.7633 282.29 51.2833 282.29 51.89C282.29 52.4967 282.42 53.02 282.68 53.46C282.94 53.8933 283.27 54.2267 283.67 54.46C284.077 54.6867 284.493 54.8 284.92 54.8ZM290.441 52.25C290.447 52.7433 290.554 53.1933 290.761 53.6C290.967 54.0067 291.274 54.33 291.681 54.57C292.094 54.81 292.601 54.93 293.201 54.93C293.707 54.93 294.137 54.8567 294.491 54.71C294.851 54.5567 295.144 54.3767 295.371 54.17C295.597 53.9567 295.761 53.7667 295.861 53.6L296.711 54.65C296.491 54.97 296.221 55.25 295.901 55.49C295.587 55.73 295.204 55.9133 294.751 56.04C294.297 56.1733 293.744 56.24 293.091 56.24C292.211 56.24 291.447 56.0533 290.801 55.68C290.161 55.3 289.667 54.7767 289.321 54.11C288.974 53.4367 288.801 52.6667 288.801 51.8C288.801 51 288.964 50.28 289.291 49.64C289.617 48.9933 290.091 48.4833 290.711 48.11C291.337 47.7367 292.091 47.55 292.971 47.55C293.777 47.55 294.477 47.72 295.071 48.06C295.671 48.3933 296.134 48.8667 296.461 49.48C296.794 50.0933 296.961 50.8267 296.961 51.68C296.961 51.7333 296.957 51.83 296.951 51.97C296.944 52.1033 296.937 52.1967 296.931 52.25H290.441ZM295.301 50.94C295.294 50.6667 295.214 50.3667 295.061 50.04C294.914 49.7133 294.674 49.4333 294.341 49.2C294.007 48.9667 293.557 48.85 292.991 48.85C292.404 48.85 291.931 48.9633 291.571 49.19C291.217 49.4167 290.957 49.6933 290.791 50.02C290.624 50.34 290.527 50.6467 290.501 50.94H295.301ZM303.472 47.55C304.012 47.55 304.535 47.6633 305.042 47.89C305.555 48.1167 305.975 48.4767 306.302 48.97C306.635 49.4567 306.802 50.0933 306.802 50.88V56H305.042V51.22C305.042 50.4067 304.852 49.8167 304.472 49.45C304.092 49.0767 303.602 48.89 303.002 48.89C302.609 48.89 302.229 49.0033 301.862 49.23C301.502 49.45 301.205 49.7567 300.972 50.15C300.739 50.5367 300.622 50.9767 300.622 51.47V56H298.882V47.79H300.622V49.25C300.682 49.0233 300.845 48.7767 301.112 48.51C301.379 48.2433 301.719 48.0167 302.132 47.83C302.545 47.6433 302.992 47.55 303.472 47.55ZM308.377 47.79H309.987V44.42H311.717V47.79H313.827V49.28H311.717V53.34C311.717 53.82 311.801 54.1733 311.967 54.4C312.141 54.6267 312.371 54.74 312.657 54.74C312.911 54.74 313.107 54.6933 313.247 54.6C313.387 54.5067 313.471 54.4433 313.497 54.41L314.187 55.69C314.147 55.7233 314.041 55.7867 313.867 55.88C313.694 55.9733 313.471 56.0567 313.197 56.13C312.924 56.2033 312.604 56.24 312.237 56.24C311.597 56.24 311.061 56.0467 310.627 55.66C310.201 55.2667 309.987 54.6467 309.987 53.8V49.28H308.377V47.79ZM316.788 52.25C316.795 52.7433 316.902 53.1933 317.108 53.6C317.315 54.0067 317.622 54.33 318.028 54.57C318.442 54.81 318.948 54.93 319.548 54.93C320.055 54.93 320.485 54.8567 320.838 54.71C321.198 54.5567 321.492 54.3767 321.718 54.17C321.945 53.9567 322.108 53.7667 322.208 53.6L323.058 54.65C322.838 54.97 322.568 55.25 322.248 55.49C321.935 55.73 321.552 55.9133 321.098 56.04C320.645 56.1733 320.092 56.24 319.438 56.24C318.558 56.24 317.795 56.0533 317.148 55.68C316.508 55.3 316.015 54.7767 315.668 54.11C315.322 53.4367 315.148 52.6667 315.148 51.8C315.148 51 315.312 50.28 315.638 49.64C315.965 48.9933 316.438 48.4833 317.058 48.11C317.685 47.7367 318.438 47.55 319.318 47.55C320.125 47.55 320.825 47.72 321.418 48.06C322.018 48.3933 322.482 48.8667 322.808 49.48C323.142 50.0933 323.308 50.8267 323.308 51.68C323.308 51.7333 323.305 51.83 323.298 51.97C323.292 52.1033 323.285 52.1967 323.278 52.25H316.788ZM321.648 50.94C321.642 50.6667 321.562 50.3667 321.408 50.04C321.262 49.7133 321.022 49.4333 320.688 49.2C320.355 48.9667 319.905 48.85 319.338 48.85C318.752 48.85 318.278 48.9633 317.918 49.19C317.565 49.4167 317.305 49.6933 317.138 50.02C316.972 50.34 316.875 50.6467 316.848 50.94H321.648ZM326.94 56H325.21V47.79H326.94V49.21H326.89C326.923 49.0367 327.046 48.82 327.26 48.56C327.473 48.3 327.766 48.0667 328.14 47.86C328.513 47.6533 328.96 47.55 329.48 47.55C329.86 47.55 330.193 47.6033 330.48 47.71C330.773 47.81 330.98 47.91 331.1 48.01L330.39 49.45C330.296 49.3567 330.133 49.2633 329.9 49.17C329.666 49.07 329.376 49.02 329.03 49.02C328.59 49.02 328.213 49.1567 327.9 49.43C327.586 49.7033 327.346 50.0333 327.18 50.42C327.02 50.8 326.94 51.1533 326.94 51.48V56Z" fill="#656565"/>
<path d="M151 26.0681C153.148 28.4545 147.946 28.8679 147.54 32.7499C147.446 33.648 147.538 45.9536 147.866 49.3062C147.101 47.1885 144.535 32.0072 146.517 30.1494C147.098 29.6038 151 28.8124 151 26.0681Z" fill="#656565" stroke="#656565" stroke-width="0.27691"/>
<path d="M151.088 20.7241C150.99 22.0627 149.787 23.0701 148.396 22.9676C147.699 22.9164 147.019 22.5914 146.526 22.1098C146.033 21.6284 145.733 20.9967 145.782 20.3334C145.831 19.6668 146.232 18.9717 146.802 18.4546C147.372 17.9375 148.099 17.6107 148.786 17.6613C149.472 17.7118 150.072 18.1342 150.49 18.7218C150.909 19.3094 151.138 20.0521 151.088 20.7241Z" fill="#656565" stroke="#656565" stroke-width="0.171634"/>
<path d="M148.99 26.0713C154.201 26.994 149.435 29.2387 148.576 29.1861C148.079 29.1557 152.06 27.95 148.99 26.0713Z" fill="#656565" stroke="#656565" stroke-width="0.238635"/>
<path d="M130 20.4259C135.143 20.3935 145.028 23.5099 146.759 25.0155C148.518 26.1264 148.965 25.3895 150.858 28.0171C152.69 26.9392 150.244 24.8861 148.733 24.0273L148.73 24.0255C148.43 23.8551 139.672 18.8743 130 20.4259Z" fill="#656565" stroke="#656565" stroke-width="0.27691"/>
<path d="M146.194 26.0758C144.046 28.4621 149.248 28.8755 149.654 32.7575C149.748 33.6556 149.655 45.9612 149.327 49.3138C150.092 47.1961 152.658 32.0148 150.677 30.157C150.095 29.6114 146.194 28.8201 146.194 26.0758Z" fill="#656565" stroke="#656565" stroke-width="0.27691"/>
<path d="M148.204 26.0789C142.993 27.0016 147.758 29.2463 148.618 29.1937C149.115 29.1633 145.133 27.9576 148.204 26.0789Z" fill="#656565" stroke="#656565" stroke-width="0.238635"/>
<path d="M167.194 20.4336C162.051 20.4011 152.166 23.5175 150.434 25.0232C148.675 26.134 148.228 25.3971 146.336 28.0247C144.503 26.9469 146.949 24.8937 148.461 24.0349L148.464 24.0331C148.763 23.8627 157.522 18.8819 167.194 20.4336Z" fill="#656565" stroke="#656565" stroke-width="0.27691"/>
</svg>
