<svg width="33" height="28" viewBox="0 0 33 28" fill="none" xmlns="http://www.w3.org/2000/svg">
<path d="M14.4568 7.5755C12.6626 9.56905 17.0082 9.91438 17.3475 13.1574C17.426 13.9077 17.3486 24.1877 17.0746 26.9885C17.7135 25.2193 19.8575 12.537 18.2022 10.985C17.7161 10.5292 14.4568 9.86808 14.4568 7.5755Z" fill="#868686" stroke="#868686" stroke-width="0.231329"/>
<path d="M14.383 3.1111C14.4654 4.2294 15.4704 5.07092 16.6325 4.98535C17.2142 4.94251 17.7824 4.67102 18.1943 4.26873C18.606 3.86652 18.8567 3.33887 18.8159 2.78468C18.7749 2.22789 18.4402 1.64719 17.9637 1.2152C17.4872 0.783214 16.8804 0.510207 16.3061 0.552495C15.7335 0.594654 15.2324 0.947536 14.8828 1.43838C14.5332 1.92928 14.3417 2.54974 14.383 3.1111Z" fill="#868686" stroke="#868686" stroke-width="0.143382"/>
<path d="M16.136 7.57804C11.7828 8.34886 15.7638 10.2241 16.4821 10.1802C16.8972 10.1548 13.5711 9.14753 16.136 7.57804Z" fill="#868686" stroke="#868686" stroke-width="0.199355"/>
<path d="M32 2.86206C27.7036 2.83494 19.4458 5.43835 17.9992 6.6962C16.5299 7.62418 16.1564 7.0086 14.5755 9.2037C13.0447 8.30324 15.088 6.58808 16.3507 5.87061L16.3533 5.8691C16.6036 5.72677 23.9201 1.56581 32 2.86206Z" fill="#868686" stroke="#868686" stroke-width="0.231329"/>
<path d="M18.4719 7.58185C20.2661 9.57539 15.9205 9.92072 15.5812 13.1638C15.5027 13.914 15.5801 24.1941 15.8541 26.9948C15.2152 25.2257 13.0712 12.5433 14.7265 10.9913C15.2127 10.5355 18.4719 9.87442 18.4719 7.58185Z" fill="#868686" stroke="#868686" stroke-width="0.231329"/>
<path d="M16.7927 7.58439C21.1459 8.35521 17.1649 10.2305 16.4466 10.1865C16.0315 10.1611 19.3576 9.15388 16.7927 7.58439Z" fill="#868686" stroke="#868686" stroke-width="0.199355"/>
<path d="M0.928711 2.86841C5.22511 2.84129 13.4829 5.4447 14.9295 6.70255C16.3988 7.63052 16.7723 7.01495 18.3532 9.21005C19.884 8.30959 17.8407 6.59443 16.5781 5.87696L16.5754 5.87544C16.3251 5.73312 9.00861 1.57216 0.928711 2.86841Z" fill="#868686" stroke="#868686" stroke-width="0.231329"/>
</svg>
