<svg width="432" height="89" viewBox="0 0 432 89" fill="none" xmlns="http://www.w3.org/2000/svg">
<path d="M234.971 42.5439C234.971 41.468 235.173 40.5178 235.579 39.6934C235.984 38.855 236.501 38.1354 237.13 37.5346C237.772 36.9197 238.436 36.4027 239.121 35.9835C239.819 35.5644 240.469 35.236 241.07 34.9984C241.685 34.7469 242.16 34.5723 242.495 34.4745C242.202 34.3068 241.86 34.0343 241.468 33.657C241.091 33.2658 240.721 32.7977 240.357 32.2527C240.008 31.6938 239.715 31.072 239.477 30.3873C239.24 29.7027 239.121 28.983 239.121 28.2285C239.121 27.0548 239.442 25.9649 240.085 24.9588C240.742 23.9528 241.692 23.1493 242.935 22.5485C244.179 21.9336 245.667 21.6262 247.4 21.6262C249.119 21.6262 250.551 21.9197 251.697 22.5065C252.856 23.0934 253.73 23.8899 254.316 24.8959C254.917 25.902 255.218 27.0408 255.218 28.3123C255.218 29.3044 254.994 30.1987 254.547 30.9952C254.114 31.7777 253.569 32.4693 252.912 33.0702C252.255 33.657 251.599 34.1531 250.942 34.5583C250.299 34.9635 249.754 35.2709 249.307 35.4805L254.023 40.5527C254.372 40.2593 254.854 39.7563 255.469 39.0436C256.098 38.331 256.748 37.4787 257.419 36.4866L260.898 39.6095C260.688 39.9449 260.388 40.3711 259.997 40.8881C259.605 41.4051 259.179 41.9221 258.718 42.4391C258.271 42.9561 257.831 43.3962 257.398 43.7595L263.14 49.7959H256.538L253.478 46.5472C252.765 47.162 251.941 47.7558 251.005 48.3287C250.083 48.9016 249.035 49.3767 247.861 49.754C246.687 50.1173 245.36 50.2989 243.879 50.2989C242.272 50.2989 240.791 49.9985 239.435 49.3977C238.094 48.7968 237.011 47.9165 236.186 46.7568C235.376 45.597 234.971 44.1927 234.971 42.5439ZM245.073 37.6184C244.892 37.6883 244.626 37.807 244.277 37.9747C243.941 38.1284 243.578 38.331 243.187 38.5825C242.796 38.8201 242.425 39.1135 242.076 39.4628C241.727 39.7982 241.44 40.1824 241.217 40.6156C240.993 41.0488 240.881 41.5378 240.881 42.0828C240.881 42.8373 241.056 43.4661 241.405 43.9691C241.755 44.4582 242.223 44.8215 242.81 45.059C243.411 45.2966 244.074 45.4153 244.801 45.4153C245.541 45.4153 246.254 45.2896 246.939 45.0381C247.623 44.7866 248.245 44.4792 248.804 44.1159C249.377 43.7526 249.831 43.4032 250.166 43.0679L245.073 37.6184ZM247.379 25.6505C246.708 25.6505 246.135 25.7832 245.66 26.0487C245.185 26.3002 244.829 26.6286 244.591 27.0338C244.354 27.439 244.235 27.8582 244.235 28.2914C244.235 28.7525 244.347 29.2276 244.57 29.7166C244.794 30.2057 245.052 30.6598 245.346 31.079C245.653 31.4982 245.933 31.8475 246.184 32.127C246.436 32.3925 246.582 32.5532 246.624 32.6091C246.834 32.5392 247.148 32.3995 247.568 32.1899C247.987 31.9663 248.413 31.6729 248.846 31.3096C249.293 30.9463 249.67 30.5131 249.978 30.0101C250.285 29.507 250.439 28.9341 250.439 28.2914C250.439 27.5508 250.16 26.929 249.601 26.426C249.056 25.909 248.315 25.6505 247.379 25.6505Z" fill="#D6D6D6"/>
<path d="M45.7429 49.7959V46.7987C45.6172 47.1061 45.2958 47.5393 44.7788 48.0982C44.2618 48.6571 43.5631 49.1671 42.6828 49.6282C41.8165 50.0754 40.7965 50.2989 39.6227 50.2989C37.9739 50.2989 36.5137 49.9077 35.2422 49.1252C33.9707 48.3287 32.9716 47.2458 32.245 45.8765C31.5324 44.4931 31.176 42.9351 31.176 41.2025C31.176 39.4698 31.5324 37.9188 32.245 36.5495C32.9716 35.1661 33.9707 34.0762 35.2422 33.2798C36.5137 32.4833 37.9739 32.0851 39.6227 32.0851C40.7685 32.0851 41.7606 32.2807 42.599 32.6719C43.4514 33.0492 44.136 33.4963 44.653 34.0133C45.184 34.5164 45.5264 34.9705 45.6801 35.3757V32.5881H50.9619V49.7959H45.7429ZM36.395 41.2025C36.395 42.1666 36.6116 43.019 37.0447 43.7595C37.4779 44.4861 38.0508 45.052 38.7634 45.4573C39.476 45.8625 40.2515 46.0651 41.0899 46.0651C41.9702 46.0651 42.7527 45.8625 43.4374 45.4573C44.1221 45.0381 44.66 44.4652 45.0513 43.7386C45.4565 42.998 45.6591 42.1526 45.6591 41.2025C45.6591 40.2523 45.4565 39.4139 45.0513 38.6873C44.66 37.9468 44.1221 37.3669 43.4374 36.9477C42.7527 36.5285 41.9702 36.3189 41.0899 36.3189C40.2515 36.3189 39.476 36.5285 38.7634 36.9477C38.0508 37.3529 37.4779 37.9258 37.0447 38.6664C36.6116 39.393 36.395 40.2383 36.395 41.2025ZM62.5214 46.0651C63.4296 46.0651 64.1702 45.9114 64.7431 45.604C65.316 45.2966 65.6933 45.066 65.8749 44.9123L68.3482 48.5802C68.1525 48.7339 67.7892 48.9505 67.2583 49.23C66.7273 49.5095 66.0496 49.754 65.2252 49.9636C64.4147 50.1871 63.4855 50.2989 62.4376 50.2989C60.6211 50.2989 58.9932 49.9356 57.554 49.209C56.1148 48.4685 54.976 47.4205 54.1376 46.0651C53.3132 44.6957 52.901 43.0679 52.901 41.1815C52.901 39.2812 53.3132 37.6533 54.1376 36.2979C54.976 34.9426 56.1148 33.9016 57.554 33.175C58.9932 32.4484 60.6211 32.0851 62.4376 32.0851C63.4716 32.0851 64.3868 32.1968 65.1833 32.4204C65.9937 32.644 66.6714 32.9025 67.2163 33.1959C67.7613 33.4754 68.1386 33.7059 68.3482 33.8876L65.8121 37.5765C65.7142 37.4647 65.5256 37.311 65.2461 37.1154C64.9667 36.9197 64.5964 36.7381 64.1353 36.5704C63.6882 36.4027 63.1502 36.3189 62.5214 36.3189C61.7529 36.3189 61.0193 36.5215 60.3206 36.9267C59.636 37.3319 59.077 37.8979 58.6439 38.6244C58.2107 39.351 57.9941 40.2034 57.9941 41.1815C57.9941 42.1596 58.2107 43.019 58.6439 43.7595C59.077 44.4861 59.636 45.052 60.3206 45.4573C61.0193 45.8625 61.7529 46.0651 62.5214 46.0651ZM74.6937 40.8252C74.6937 42.3622 75.0011 43.5919 75.6159 44.5141C76.2307 45.4223 77.2228 45.8765 78.5921 45.8765C79.9755 45.8765 80.9746 45.4223 81.5894 44.5141C82.2042 43.5919 82.5116 42.3622 82.5116 40.8252V32.5881H87.7515V41.433C87.7515 43.2076 87.3952 44.7656 86.6825 46.107C85.9699 47.4345 84.9289 48.4685 83.5596 49.209C82.2042 49.9356 80.5484 50.2989 78.5921 50.2989C76.6499 50.2989 74.9941 49.9356 73.6247 49.209C72.2693 48.4685 71.2353 47.4345 70.5227 46.107C69.8101 44.7656 69.4538 43.2076 69.4538 41.433V32.5881H74.6937V40.8252ZM95.6608 58.5151H90.379V32.5881H95.7236V35.3757C95.8913 34.9705 96.2546 34.5094 96.8135 33.9924C97.3725 33.4754 98.0991 33.0282 98.9933 32.651C99.9016 32.2737 100.936 32.0851 102.095 32.0851C103.73 32.0851 105.155 32.4833 106.371 33.2798C107.587 34.0762 108.523 35.1661 109.18 36.5495C109.85 37.9188 110.186 39.4698 110.186 41.2025C110.186 42.9351 109.836 44.4931 109.138 45.8765C108.439 47.2458 107.468 48.3287 106.224 49.1252C104.981 49.9077 103.535 50.2989 101.886 50.2989C100.642 50.2989 99.5732 50.0754 98.6789 49.6282C97.7847 49.1811 97.086 48.6781 96.583 48.1191C96.08 47.5602 95.7726 47.1201 95.6608 46.7987V58.5151ZM104.967 41.2025C104.967 40.2383 104.757 39.393 104.338 38.6664C103.933 37.9258 103.388 37.3529 102.703 36.9477C102.019 36.5285 101.257 36.3189 100.419 36.3189C99.5383 36.3189 98.7418 36.5285 98.0292 36.9477C97.3166 37.3669 96.7507 37.9468 96.3315 38.6873C95.9263 39.4139 95.7236 40.2523 95.7236 41.2025C95.7236 42.1526 95.9263 42.998 96.3315 43.7386C96.7507 44.4652 97.3166 45.0381 98.0292 45.4573C98.7418 45.8625 99.5383 46.0651 100.419 46.0651C101.257 46.0651 102.019 45.8625 102.703 45.4573C103.388 45.052 103.933 44.4861 104.338 43.7595C104.757 43.019 104.967 42.1666 104.967 41.2025ZM116.985 40.8252C116.985 42.3622 117.292 43.5919 117.907 44.5141C118.522 45.4223 119.514 45.8765 120.883 45.8765C122.266 45.8765 123.265 45.4223 123.88 44.5141C124.495 43.5919 124.802 42.3622 124.802 40.8252V32.5881H130.042V41.433C130.042 43.2076 129.686 44.7656 128.973 46.107C128.261 47.4345 127.22 48.4685 125.85 49.209C124.495 49.9356 122.839 50.2989 120.883 50.2989C118.941 50.2989 117.285 49.9356 115.916 49.209C114.56 48.4685 113.526 47.4345 112.814 46.107C112.101 44.7656 111.745 43.2076 111.745 41.433V32.5881H116.985V40.8252ZM143.653 32.0851C144.826 32.0851 145.972 32.3296 147.09 32.8186C148.208 33.2937 149.123 34.0553 149.836 35.1032C150.562 36.1512 150.926 37.5206 150.926 39.2113V49.7959H145.581V40.1335C145.581 38.7223 145.246 37.6743 144.575 36.9896C143.918 36.3049 143.052 35.9626 141.976 35.9626C141.277 35.9626 140.606 36.1582 139.964 36.5495C139.335 36.9267 138.818 37.4577 138.413 38.1424C138.021 38.8131 137.826 39.5816 137.826 40.4479V49.7959H132.502V32.5881H137.826V35.3338C137.98 34.8587 138.329 34.3697 138.874 33.8666C139.419 33.3636 140.11 32.9444 140.949 32.6091C141.787 32.2597 142.688 32.0851 143.653 32.0851ZM162.251 46.0651C163.16 46.0651 163.9 45.9114 164.473 45.604C165.046 45.2966 165.423 45.066 165.605 44.9123L168.078 48.5802C167.882 48.7339 167.519 48.9505 166.988 49.23C166.457 49.5095 165.779 49.754 164.955 49.9636C164.145 50.1871 163.215 50.2989 162.167 50.2989C160.351 50.2989 158.723 49.9356 157.284 49.209C155.845 48.4685 154.706 47.4205 153.867 46.0651C153.043 44.6957 152.631 43.0679 152.631 41.1815C152.631 39.2812 153.043 37.6533 153.867 36.2979C154.706 34.9426 155.845 33.9016 157.284 33.175C158.723 32.4484 160.351 32.0851 162.167 32.0851C163.201 32.0851 164.117 32.1968 164.913 32.4204C165.724 32.644 166.401 32.9025 166.946 33.1959C167.491 33.4754 167.868 33.7059 168.078 33.8876L165.542 37.5765C165.444 37.4647 165.255 37.311 164.976 37.1154C164.697 36.9197 164.326 36.7381 163.865 36.5704C163.418 36.4027 162.88 36.3189 162.251 36.3189C161.483 36.3189 160.749 36.5215 160.051 36.9267C159.366 37.3319 158.807 37.8979 158.374 38.6244C157.941 39.351 157.724 40.2034 157.724 41.1815C157.724 42.1596 157.941 43.019 158.374 43.7595C158.807 44.4861 159.366 45.052 160.051 45.4573C160.749 45.8625 161.483 46.0651 162.251 46.0651ZM183.595 40.8252C183.595 42.3622 183.902 43.5919 184.517 44.5141C185.132 45.4223 186.124 45.8765 187.493 45.8765C188.877 45.8765 189.876 45.4223 190.491 44.5141C191.106 43.5919 191.413 42.3622 191.413 40.8252V32.5881H196.653V41.433C196.653 43.2076 196.296 44.7656 195.584 46.107C194.871 47.4345 193.83 48.4685 192.461 49.209C191.106 49.9356 189.45 50.2989 187.493 50.2989C185.551 50.2989 183.895 49.9356 182.526 49.209C181.171 48.4685 180.137 47.4345 179.424 46.107C178.711 44.7656 178.355 43.2076 178.355 41.433V32.5881H183.595V40.8252ZM204.248 49.7959H198.924V32.5881H204.248V35.3757H204.143C204.241 35.0404 204.506 34.6142 204.939 34.0972C205.386 33.5802 206.001 33.1191 206.784 32.7139C207.566 32.2947 208.509 32.0851 209.613 32.0851C210.41 32.0851 211.129 32.2038 211.772 32.4414C212.429 32.6649 212.897 32.8885 213.176 33.1121L211.081 37.4717C210.899 37.2481 210.557 37.0175 210.053 36.78C209.564 36.5425 208.95 36.4237 208.209 36.4237C207.329 36.4237 206.595 36.6682 206.008 37.1573C205.421 37.6324 204.981 38.2192 204.688 38.9179C204.394 39.6026 204.248 40.2453 204.248 40.8462V49.7959ZM217.039 42.3762C217.081 43.1587 217.29 43.8574 217.668 44.4722C218.045 45.087 218.59 45.5691 219.303 45.9184C220.029 46.2677 220.895 46.4424 221.902 46.4424C222.81 46.4424 223.606 46.3306 224.291 46.107C224.99 45.8834 225.576 45.611 226.052 45.2896C226.541 44.9542 226.904 44.6329 227.141 44.3255L229.342 47.5951C228.951 48.0842 228.427 48.5383 227.77 48.9575C227.127 49.3627 226.303 49.6841 225.297 49.9217C224.305 50.1732 223.061 50.2989 221.566 50.2989C219.68 50.2989 218.024 49.9286 216.599 49.1881C215.174 48.4475 214.063 47.3786 213.266 45.9813C212.47 44.584 212.072 42.9212 212.072 40.9929C212.072 39.3161 212.428 37.807 213.14 36.4656C213.853 35.1102 214.887 34.0413 216.242 33.2588C217.612 32.4763 219.254 32.0851 221.168 32.0851C222.97 32.0851 224.528 32.4344 225.842 33.133C227.169 33.8177 228.196 34.8238 228.923 36.1512C229.65 37.4787 230.013 39.0995 230.013 41.0138C230.013 41.1256 230.006 41.3562 229.992 41.7055C229.992 42.0409 229.978 42.2644 229.95 42.3762H217.039ZM225.025 39.0856C225.011 38.6384 224.871 38.1564 224.605 37.6393C224.354 37.1223 223.956 36.6822 223.411 36.3189C222.866 35.9556 222.139 35.7739 221.231 35.7739C220.323 35.7739 219.575 35.9486 218.988 36.2979C218.415 36.6473 217.982 37.0804 217.689 37.5974C217.395 38.1005 217.228 38.5965 217.186 39.0856H225.025Z" fill="#D6D6D6"/>
<path d="M288.334 32.0851C289.605 32.0851 290.695 32.3645 291.603 32.9234C292.512 33.4684 293.203 34.3068 293.678 35.4386C294.167 36.5704 294.412 38.0166 294.412 39.7772V49.7959H290.807V40.5108C290.807 38.6524 290.548 37.2551 290.031 36.3189C289.514 35.3827 288.571 34.9146 287.202 34.9146C286.475 34.9146 285.777 35.1172 285.106 35.5224C284.449 35.9137 283.904 36.5215 283.471 37.3459C283.052 38.1703 282.842 39.2253 282.842 40.5108V49.7959H279.447V40.5108C279.447 38.6524 279.125 37.2551 278.483 36.3189C277.84 35.3827 276.939 34.9146 275.779 34.9146C275.038 34.9146 274.34 35.1102 273.683 35.5015C273.04 35.8787 272.516 36.4796 272.111 37.304C271.706 38.1284 271.503 39.1973 271.503 40.5108V49.7959H267.877V32.5881H271.503V35.229C271.657 34.7958 271.985 34.3347 272.488 33.8457C273.005 33.3566 273.662 32.9444 274.458 32.6091C275.269 32.2597 276.17 32.0851 277.162 32.0851C278.196 32.0851 279.063 32.2947 279.761 32.7139C280.46 33.133 281.012 33.65 281.417 34.2649C281.822 34.8657 282.102 35.4456 282.255 36.0045C282.451 35.4037 282.828 34.8028 283.387 34.202C283.946 33.5872 284.652 33.0841 285.504 32.6929C286.357 32.2877 287.3 32.0851 288.334 32.0851ZM300.063 41.9361C300.077 42.9701 300.301 43.9132 300.734 44.7656C301.167 45.618 301.81 46.2957 302.662 46.7987C303.529 47.3017 304.59 47.5532 305.848 47.5532C306.91 47.5532 307.811 47.3995 308.552 47.0921C309.306 46.7707 309.921 46.3935 310.396 45.9603C310.871 45.5132 311.214 45.1149 311.423 44.7656L313.205 46.9664C312.744 47.6371 312.178 48.2239 311.507 48.727C310.85 49.23 310.047 49.6142 309.097 49.8797C308.147 50.1592 306.987 50.2989 305.618 50.2989C303.773 50.2989 302.173 49.9077 300.818 49.1252C299.476 48.3287 298.442 47.2318 297.716 45.8345C296.989 44.4233 296.626 42.8094 296.626 40.9929C296.626 39.3161 296.968 37.807 297.653 36.4656C298.338 35.1102 299.33 34.0413 300.629 33.2588C301.943 32.4763 303.522 32.0851 305.366 32.0851C307.057 32.0851 308.524 32.4414 309.767 33.154C311.025 33.8527 311.996 34.8447 312.681 36.1303C313.38 37.4158 313.729 38.9528 313.729 40.7414C313.729 40.8531 313.722 41.0558 313.708 41.3492C313.694 41.6287 313.68 41.8243 313.666 41.9361H300.063ZM310.25 39.1904C310.236 38.6175 310.068 37.9887 309.747 37.304C309.439 36.6193 308.936 36.0324 308.237 35.5434C307.539 35.0543 306.596 34.8098 305.408 34.8098C304.178 34.8098 303.186 35.0473 302.432 35.5224C301.691 35.9975 301.146 36.5774 300.797 37.2621C300.447 37.9328 300.245 38.5755 300.189 39.1904H310.25ZM323.666 50.2989C322.087 50.2989 320.669 49.9217 319.412 49.1671C318.168 48.4126 317.183 47.3576 316.456 46.0022C315.744 44.6329 315.387 43.0329 315.387 41.2025C315.387 39.372 315.744 37.7791 316.456 36.4237C317.183 35.0543 318.168 33.9924 319.412 33.2378C320.669 32.4693 322.087 32.0851 323.666 32.0851C324.938 32.0851 326.056 32.3086 327.02 32.7558C327.984 33.1889 328.752 33.699 329.325 34.2858C329.898 34.8727 330.227 35.3827 330.31 35.8159V20.9555H333.978V49.7959H330.373V46.4424C330.22 46.9175 329.835 47.4554 329.221 48.0563C328.62 48.6571 327.844 49.1811 326.894 49.6282C325.944 50.0754 324.868 50.2989 323.666 50.2989ZM324.505 47.2808C325.567 47.2808 326.538 47.0292 327.418 46.5262C328.298 46.0232 328.997 45.3175 329.514 44.4093C330.045 43.4871 330.31 42.4181 330.31 41.2025C330.31 39.9868 330.045 38.9249 329.514 38.0166C328.997 37.0944 328.298 36.3818 327.418 35.8787C326.538 35.3617 325.567 35.1032 324.505 35.1032C323.527 35.1032 322.618 35.3548 321.78 35.8578C320.942 36.3608 320.264 37.0665 319.747 37.9747C319.244 38.883 318.992 39.9589 318.992 41.2025C318.992 42.4461 319.244 43.522 319.747 44.4302C320.264 45.3385 320.942 46.0441 321.78 46.5472C322.618 47.0362 323.527 47.2808 324.505 47.2808ZM336.783 49.7959V32.5881H340.43V49.7959H336.783ZM338.649 26.6985C337.992 26.6985 337.426 26.4679 336.951 26.0068C336.49 25.5317 336.259 24.9658 336.259 24.3091C336.259 23.6523 336.49 23.0864 336.951 22.6113C337.426 22.1363 337.992 21.8987 338.649 21.8987C339.082 21.8987 339.48 22.0105 339.843 22.2341C340.221 22.4576 340.521 22.7511 340.745 23.1144C340.968 23.4637 341.08 23.8619 341.08 24.3091C341.08 24.9658 340.843 25.5317 340.367 26.0068C339.892 26.4679 339.32 26.6985 338.649 26.6985ZM352.44 47.2808C353.53 47.2808 354.41 47.1061 355.081 46.7568C355.751 46.4074 356.171 46.1559 356.338 46.0022L358.12 48.6222C357.98 48.7479 357.645 48.9505 357.114 49.23C356.597 49.4955 355.926 49.74 355.102 49.9636C354.291 50.1871 353.369 50.2989 352.335 50.2989C350.756 50.2989 349.289 49.9496 347.934 49.2509C346.578 48.5383 345.481 47.5043 344.643 46.1489C343.818 44.7935 343.406 43.1377 343.406 41.1815C343.406 39.2113 343.818 37.5555 344.643 36.2141C345.481 34.8587 346.578 33.8317 347.934 33.133C349.289 32.4344 350.756 32.0851 352.335 32.0851C353.355 32.0851 354.263 32.2108 355.06 32.4623C355.856 32.6999 356.513 32.9654 357.03 33.2588C357.547 33.5522 357.889 33.7758 358.057 33.9295L356.255 36.5495C356.143 36.4377 355.926 36.27 355.605 36.0464C355.297 35.8089 354.878 35.5923 354.347 35.3967C353.816 35.2011 353.18 35.1032 352.44 35.1032C351.546 35.1032 350.672 35.3478 349.82 35.8368C348.982 36.3119 348.29 37.0036 347.745 37.9118C347.2 38.8201 346.927 39.91 346.927 41.1815C346.927 42.4531 347.2 43.5499 347.745 44.4722C348.29 45.3804 348.982 46.0791 349.82 46.5681C350.672 47.0432 351.546 47.2808 352.44 47.2808ZM373.883 49.7959V46.4424C373.771 46.7917 373.443 47.2738 372.898 47.8886C372.367 48.5034 371.633 49.0623 370.697 49.5653C369.775 50.0544 368.685 50.2989 367.428 50.2989C365.835 50.2989 364.388 49.9217 363.089 49.1671C361.803 48.4126 360.776 47.3576 360.008 46.0022C359.253 44.6329 358.876 43.0329 358.876 41.2025C358.876 39.372 359.253 37.7791 360.008 36.4237C360.776 35.0543 361.803 33.9924 363.089 33.2378C364.388 32.4693 365.835 32.0851 367.428 32.0851C368.671 32.0851 369.747 32.3086 370.655 32.7558C371.578 33.2029 372.311 33.7199 372.856 34.3068C373.415 34.8936 373.743 35.3967 373.841 35.8159V32.5881H377.446V49.7959H373.883ZM362.481 41.2025C362.481 42.4461 362.754 43.522 363.299 44.4302C363.844 45.3385 364.549 46.0441 365.415 46.5472C366.296 47.0362 367.232 47.2808 368.224 47.2808C369.286 47.2808 370.236 47.0292 371.075 46.5262C371.913 46.0232 372.577 45.3175 373.066 44.4093C373.555 43.4871 373.799 42.4181 373.799 41.2025C373.799 39.9868 373.555 38.9249 373.066 38.0166C372.577 37.0944 371.913 36.3818 371.075 35.8787C370.236 35.3617 369.286 35.1032 368.224 35.1032C367.232 35.1032 366.296 35.3548 365.415 35.8578C364.549 36.3608 363.844 37.0665 363.299 37.9747C362.754 38.883 362.481 39.9589 362.481 41.2025ZM384.436 49.7959H380.768V20.9555H384.436V49.7959Z" fill="#D6D6D6"/>
<path d="M331.767 63.5099C332.372 63.5099 332.861 63.4129 333.234 63.2188C333.607 63.0247 333.839 62.885 333.933 62.7996L334.922 64.2552C334.845 64.325 334.658 64.4376 334.363 64.5928C334.076 64.7403 333.704 64.8762 333.246 65.0004C332.795 65.1246 332.283 65.1867 331.709 65.1867C330.831 65.1867 330.016 64.9926 329.263 64.6045C328.51 64.2086 327.901 63.6341 327.435 62.8811C326.977 62.1281 326.748 61.2083 326.748 60.1215C326.748 59.0269 326.977 58.107 327.435 57.3618C327.901 56.6088 328.51 56.0382 329.263 55.6501C330.016 55.2619 330.831 55.0679 331.709 55.0679C332.275 55.0679 332.78 55.1377 333.222 55.2775C333.665 55.4094 334.03 55.5569 334.317 55.7199C334.604 55.883 334.794 56.0072 334.887 56.0926L333.886 57.5481C333.824 57.486 333.704 57.3928 333.525 57.2686C333.354 57.1367 333.121 57.0163 332.826 56.9077C332.531 56.799 332.178 56.7446 331.767 56.7446C331.27 56.7446 330.785 56.8805 330.311 57.1522C329.845 57.4161 329.461 57.8004 329.158 58.305C328.856 58.8095 328.704 59.415 328.704 60.1215C328.704 60.8279 328.856 61.4373 329.158 61.9496C329.461 62.4542 329.845 62.8423 330.311 63.114C330.785 63.378 331.27 63.5099 331.767 63.5099ZM338.195 60.5406C338.203 61.1151 338.327 61.6391 338.568 62.1126C338.809 62.5861 339.166 62.9626 339.639 63.2421C340.12 63.5216 340.71 63.6613 341.409 63.6613C341.999 63.6613 342.5 63.5759 342.911 63.4051C343.33 63.2266 343.672 63.017 343.936 62.7763C344.2 62.5279 344.39 62.3067 344.506 62.1126L345.496 63.3353C345.24 63.7079 344.926 64.0339 344.553 64.3134C344.188 64.5928 343.742 64.8063 343.214 64.9538C342.686 65.1091 342.042 65.1867 341.281 65.1867C340.256 65.1867 339.367 64.9693 338.614 64.5346C337.869 64.0921 337.295 63.4828 336.891 62.7065C336.487 61.9224 336.286 61.0258 336.286 60.0167C336.286 59.0851 336.476 58.2467 336.856 57.5015C337.237 56.7485 337.788 56.1547 338.51 55.7199C339.239 55.2852 340.117 55.0679 341.141 55.0679C342.081 55.0679 342.896 55.2658 343.587 55.6617C344.285 56.0499 344.825 56.601 345.205 57.3152C345.593 58.0294 345.787 58.8833 345.787 59.8769C345.787 59.939 345.783 60.0516 345.776 60.2146C345.768 60.3699 345.76 60.4785 345.752 60.5406H338.195ZM343.854 59.0153C343.847 58.697 343.753 58.3477 343.575 57.9673C343.404 57.5869 343.125 57.2609 342.737 56.9892C342.348 56.7175 341.824 56.5816 341.165 56.5816C340.481 56.5816 339.93 56.7136 339.511 56.9775C339.1 57.2415 338.797 57.5636 338.603 57.944C338.409 58.3166 338.296 58.6737 338.265 59.0153H343.854ZM353.369 55.0679C353.998 55.0679 354.607 55.1998 355.197 55.4638C355.795 55.7277 356.284 56.1469 356.664 56.7214C357.053 57.288 357.247 58.0294 357.247 58.9454V64.9072H355.197V59.3413C355.197 58.3942 354.976 57.7072 354.534 57.2803C354.091 56.8456 353.521 56.6282 352.822 56.6282C352.364 56.6282 351.921 56.7602 351.494 57.0241C351.075 57.2803 350.73 57.6374 350.458 58.0954C350.186 58.5456 350.051 59.058 350.051 59.6324V64.9072H348.024V55.3473H350.051V57.0474C350.12 56.7835 350.311 56.4962 350.621 56.1857C350.932 55.8752 351.328 55.6113 351.809 55.3939C352.29 55.1766 352.81 55.0679 353.369 55.0679ZM359.081 55.3473H360.956V51.4232H362.97V55.3473H365.427V57.0823H362.97V61.8099C362.97 62.3688 363.067 62.7802 363.261 63.0442C363.463 63.3081 363.731 63.4401 364.065 63.4401C364.36 63.4401 364.589 63.3857 364.752 63.277C364.915 63.1684 365.012 63.0946 365.043 63.0558L365.846 64.5463C365.8 64.5851 365.676 64.6588 365.474 64.7675C365.272 64.8762 365.012 64.9732 364.694 65.0586C364.375 65.144 364.003 65.1867 363.576 65.1867C362.83 65.1867 362.206 64.9616 361.701 64.5113C361.204 64.0533 360.956 63.3314 360.956 62.3455V57.0823H359.081V55.3473ZM368.875 60.5406C368.883 61.1151 369.007 61.6391 369.248 62.1126C369.488 62.5861 369.845 62.9626 370.319 63.2421C370.8 63.5216 371.39 63.6613 372.089 63.6613C372.679 63.6613 373.18 63.5759 373.591 63.4051C374.01 63.2266 374.352 63.017 374.616 62.7763C374.88 62.5279 375.07 62.3067 375.186 62.1126L376.176 63.3353C375.92 63.7079 375.605 64.0339 375.233 64.3134C374.868 64.5928 374.422 64.8063 373.894 64.9538C373.366 65.1091 372.722 65.1867 371.961 65.1867C370.936 65.1867 370.047 64.9693 369.294 64.5346C368.549 64.0921 367.975 63.4828 367.571 62.7065C367.167 61.9224 366.965 61.0258 366.965 60.0167C366.965 59.0851 367.156 58.2467 367.536 57.5015C367.916 56.7485 368.468 56.1547 369.189 55.7199C369.919 55.2852 370.796 55.0679 371.821 55.0679C372.76 55.0679 373.575 55.2658 374.266 55.6617C374.965 56.0499 375.504 56.601 375.885 57.3152C376.273 58.0294 376.467 58.8833 376.467 59.8769C376.467 59.939 376.463 60.0516 376.455 60.2146C376.448 60.3699 376.44 60.4785 376.432 60.5406H368.875ZM374.534 59.0153C374.526 58.697 374.433 58.3477 374.255 57.9673C374.084 57.5869 373.804 57.2609 373.416 56.9892C373.028 56.7175 372.504 56.5816 371.844 56.5816C371.161 56.5816 370.61 56.7136 370.191 56.9775C369.779 57.2415 369.477 57.5636 369.283 57.944C369.089 58.3166 368.976 58.6737 368.945 59.0153H374.534ZM380.695 64.9072H378.681V55.3473H380.695V57.0008H380.637C380.676 56.799 380.82 56.5467 381.068 56.2439C381.316 55.9412 381.658 55.6695 382.093 55.4288C382.527 55.1882 383.048 55.0679 383.653 55.0679C384.095 55.0679 384.484 55.13 384.817 55.2542C385.159 55.3706 385.4 55.4871 385.539 55.6035L384.713 57.2803C384.604 57.1716 384.414 57.0629 384.142 56.9542C383.87 56.8378 383.533 56.7796 383.129 56.7796C382.617 56.7796 382.178 56.9387 381.813 57.257C381.448 57.5753 381.169 57.9595 380.975 58.4098C380.789 58.8522 380.695 59.2637 380.695 59.644V64.9072Z" fill="#D6D6D6"/>
<path d="M170.19 29.4775C167.898 32.0241 173.449 32.4652 173.882 36.608C173.983 37.5664 173.884 50.6983 173.534 54.276C174.35 52.0161 177.089 35.8154 174.974 33.8328C174.353 33.2506 170.19 32.4061 170.19 29.4775Z" fill="#92BF7C" stroke="#92BF7C" stroke-width="0.295504"/>
<path d="M170.095 23.7754C170.201 25.2039 171.484 26.2789 172.969 26.1696C173.712 26.1148 174.438 25.768 174.964 25.2541C175.49 24.7403 175.81 24.0663 175.758 23.3584C175.706 22.6471 175.278 21.9053 174.669 21.3535C174.061 20.8017 173.286 20.4529 172.552 20.5069C171.821 20.5608 171.18 21.0116 170.734 21.6386C170.287 22.2657 170.043 23.0583 170.095 23.7754Z" fill="#92BF7C" stroke="#92BF7C" stroke-width="0.18316"/>
<path d="M172.335 29.4809C166.774 30.4655 171.859 32.861 172.777 32.8049C173.307 32.7724 169.058 31.4858 172.335 29.4809Z" fill="#92BF7C" stroke="#92BF7C" stroke-width="0.25466"/>
<path d="M192.6 23.457C187.112 23.4224 176.563 26.748 174.715 28.3548C172.838 29.5403 172.361 28.7539 170.341 31.558C168.386 30.4077 170.996 28.2167 172.609 27.3002L172.612 27.2983C172.932 27.1165 182.278 21.8012 192.6 23.457Z" fill="#92BF7C" stroke="#92BF7C" stroke-width="0.295504"/>
<path d="M175.319 29.4863C177.611 32.0329 172.06 32.474 171.626 36.6168C171.526 37.5752 171.625 50.7071 171.975 54.2848C171.159 52.0249 168.42 35.8242 170.534 33.8416C171.155 33.2594 175.319 32.4149 175.319 29.4863Z" fill="#92BF7C" stroke="#92BF7C" stroke-width="0.295504"/>
<path d="M173.174 29.4897C178.735 30.4743 173.649 32.8698 172.732 32.8137C172.201 32.7812 176.45 31.4946 173.174 29.4897Z" fill="#92BF7C" stroke="#92BF7C" stroke-width="0.25466"/>
<path d="M152.909 23.4648C158.397 23.4302 168.946 26.7558 170.794 28.3626C172.671 29.5481 173.148 28.7617 175.167 31.5658C177.123 30.4155 174.512 28.2245 172.899 27.308L172.896 27.3061C172.576 27.1243 163.23 21.809 152.909 23.4648Z" fill="#92BF7C" stroke="#92BF7C" stroke-width="0.295504"/>
</svg>
