<svg width="112" height="96" viewBox="0 0 112 96" fill="none" xmlns="http://www.w3.org/2000/svg">
<path d="M63.2501 26.8807C69.6166 33.9546 54.1969 35.18 52.993 46.6876C52.7145 49.3498 52.9889 85.8274 53.9614 95.7655C51.694 89.488 44.0865 44.4859 49.9601 38.9788C51.6851 37.3614 63.2501 35.0157 63.2501 26.8807Z" fill="#92BF7C" stroke="#92BF7C" stroke-width="0.820845"/>
<path d="M63.5122 11.0394C63.22 15.0076 59.6538 17.9936 55.5301 17.69C53.4659 17.538 51.4499 16.5746 49.9884 15.1471C48.5272 13.7199 47.6379 11.8476 47.7827 9.88113C47.9282 7.90541 49.1159 5.84487 50.8067 4.31199C52.4975 2.77915 54.6507 1.81042 56.6884 1.96047C58.72 2.11007 60.4984 3.36223 61.7389 5.10394C62.9794 6.84585 63.6589 9.04749 63.5122 11.0394Z" fill="#92BF7C" stroke="#92BF7C" stroke-width="0.508777"/>
<path d="M57.292 26.89C72.7387 29.6251 58.6126 36.2793 56.064 36.1234C54.5908 36.0333 66.3933 32.4591 57.292 26.89Z" fill="#92BF7C" stroke="#92BF7C" stroke-width="0.707388"/>
<path d="M1 10.1555C16.2453 10.0593 45.5473 19.2972 50.6802 23.7605C55.894 27.0534 57.2191 24.8691 62.8288 32.6581C68.2606 29.463 61.0103 23.3769 56.5299 20.831L56.5205 20.8257C55.6325 20.3206 29.6706 5.55592 1 10.1555Z" fill="#92BF7C" stroke="#92BF7C" stroke-width="0.820845"/>
<path d="M49.0031 26.9033C42.6366 33.9772 58.0563 35.2025 59.2602 46.7102C59.5387 49.3723 59.2643 85.8499 58.2918 95.7881C60.5592 89.5105 68.1667 44.5085 62.2931 39.0014C60.5681 37.384 49.0031 35.0383 49.0031 26.9033Z" fill="#92BF7C" stroke="#92BF7C" stroke-width="0.820845"/>
<path d="M54.9612 26.9126C39.5144 29.6477 53.6406 36.3018 56.1891 36.1459C57.6623 36.0558 45.8599 32.4817 54.9612 26.9126Z" fill="#92BF7C" stroke="#92BF7C" stroke-width="0.707388"/>
<path d="M111.253 10.1781C96.0079 10.0819 66.7059 19.3198 61.573 23.7831C56.3591 27.0759 55.034 24.8916 49.4243 32.6807C43.9926 29.4855 51.2428 23.3995 55.7232 20.8536L55.7327 20.8482C56.6207 20.3432 82.5826 5.5785 111.253 10.1781Z" fill="#92BF7C" stroke="#92BF7C" stroke-width="0.820845"/>
</svg>
