<svg width="24" height="24" viewBox="0 0 24 24" fill="none" xmlns="http://www.w3.org/2000/svg">
<path fill-rule="evenodd" clip-rule="evenodd" d="M12 0C18.6274 0 24 5.37259 24 12C24 18.1352 19.3955 23.1944 13.4538 23.9121V15.667H16.7L16.7001 15.667L16.9763 14.1627L17.3734 12H17.3734L17.3734 12H13.4538V10.7031C13.4538 9.97641 13.5607 9.41742 13.7981 9.00255C14.0511 8.56043 14.4523 8.28197 15.0302 8.13863C15.3561 8.0578 15.7382 8.01995 16.1817 8.01995C16.3345 8.01995 16.4798 8.02087 16.6163 8.02273C16.8168 8.02547 16.9982 8.03022 17.156 8.03698C17.3206 8.04403 17.4596 8.05326 17.568 8.06467V4.74048C17.3668 4.68457 17.0566 4.62867 16.7073 4.58063C16.4815 4.54958 16.2395 4.52182 16 4.49947C15.6219 4.46416 15.2503 4.44232 14.9594 4.44232C10.9495 4.44232 9.10106 6.33548 9.10106 10.4199V12H6.62659V12H6.62656V15.667H9.10106V23.6466C3.87431 22.3498 0 17.6277 0 12C0 5.37259 5.37259 0 12 0Z" fill="white"/>
</svg>
