<svg width="36" height="36" viewBox="0 0 36 36" fill="none" xmlns="http://www.w3.org/2000/svg">
<path fill-rule="evenodd" clip-rule="evenodd" d="M4.5198 13.7269C4.5 14.5353 4.5 15.4531 4.5 16.5V19.5C4.5 23.7426 4.5 25.864 5.81802 27.182C7.13604 28.5 9.25736 28.5 13.5 28.5H22.5C26.7426 28.5 28.864 28.5 30.182 27.182C31.5 25.864 31.5 23.7426 31.5 19.5V16.5C31.5 15.4531 31.5 14.5353 31.4802 13.7269L19.4569 20.4065C18.5509 20.9099 17.4491 20.9099 16.5431 20.4065L4.5198 13.7269ZM4.86445 10.5446C4.98877 10.5758 5.1111 10.6236 5.22846 10.6888L18 17.7841L30.7715 10.6888C30.8889 10.6236 31.0112 10.5758 31.1356 10.5446C30.9406 9.83429 30.6413 9.27737 30.182 8.81802C28.864 7.5 26.7426 7.5 22.5 7.5H13.5C9.25736 7.5 7.13604 7.5 5.81802 8.81802C5.35867 9.27737 5.05941 9.83428 4.86445 10.5446Z" fill="white"/>
</svg>
