<svg width="30" height="30" viewBox="0 0 30 30" fill="none" xmlns="http://www.w3.org/2000/svg">
<path d="M12.804 1.20462C11.1258 1.2679 7.65005 2.31321 6.89302 3.09368C6.60473 3.3679 6.53208 3.7804 6.60473 4.05462C6.7477 4.32883 12.586 13.1882 12.586 13.1882C13.4508 14.5616 13.9008 14.4093 14.1188 14.3413C14.3344 14.271 15.054 14.0132 14.911 12.3656C14.8383 10.5093 14.2618 2.33899 14.1915 1.92649C14.0461 1.58431 13.8305 1.30774 13.3969 1.23743C13.2446 1.20462 13.043 1.19524 12.804 1.20462ZM21.9844 9.59993C21.8157 9.60696 21.6516 9.65853 21.5086 9.76165C21.0586 10.2046 21.218 9.89055 18.6282 13.3218L17.4024 14.8991C17.1141 15.2413 17.1821 15.8156 17.4704 16.2281C17.7586 16.6406 18.15 16.8585 18.6985 16.7531C18.9141 16.6827 19.3477 16.6148 20.1376 16.4085C25.1063 15.3116 25.1508 15.3187 25.3688 15.1827C25.6547 14.9765 25.8001 14.7023 25.8001 14.2898V14.2218C25.6547 13.1249 23.5243 10.1741 22.5165 9.69368C22.336 9.62571 22.1555 9.59056 21.9844 9.59993ZM5.63443 14.3812C5.34614 14.3812 4.98521 14.5195 4.76724 14.8616C4.26334 15.5507 4.10864 17.7421 4.25162 19.2538C4.32427 19.7343 4.39693 20.1257 4.5399 20.3999C4.75553 20.7445 5.0438 20.9507 5.40475 20.9507C5.62037 20.9507 5.45631 20.8874 9.78053 19.6523L11.7282 19.0335C12.2321 18.8952 12.5836 18.5507 12.5836 18.0023C12.5836 17.4538 12.3165 16.9992 11.8126 16.7929L10.4438 16.2445C5.75865 14.3882 5.85005 14.3812 5.63443 14.3812ZM18.6563 19.214C18.2813 19.1859 17.9297 19.2796 17.6625 19.5656C17.4305 19.8187 17.2547 20.5382 17.543 20.9507L18.3352 22.1156C20.9297 26.0999 20.9438 26.3038 21.1594 26.4421C21.4477 26.7163 21.8086 26.7187 22.1696 26.5804C23.3227 26.1679 25.5774 23.4374 25.7204 22.3382C25.793 21.996 25.65 21.6515 25.3594 21.3093C25.2165 21.171 24.9165 21.1218 20.8782 19.8679L19.0313 19.282C18.9071 19.2468 18.7805 19.2234 18.6563 19.214ZM13.8375 20.4187C13.4508 20.3765 13.0782 20.4538 12.8625 20.7632L11.925 21.8601C8.6813 25.4999 8.53833 25.7062 8.46568 25.9124C8.39302 26.0507 8.39302 26.1867 8.39302 26.3249C8.46568 26.5288 8.53834 26.6671 8.6813 26.8734C9.47349 27.6984 12.9751 28.9851 14.1282 28.7788C14.4891 28.7109 14.7774 28.5023 14.9204 28.1601C14.993 27.9538 14.9907 27.8179 14.9907 23.4913V21.4992C14.993 20.8968 14.7282 20.6976 14.2219 20.4913C14.0977 20.4562 13.9665 20.4304 13.8375 20.4187Z" fill="white"/>
</svg>
